<svg width="92" height="130" viewBox="0 0 92 130" fill="none" xmlns="http://www.w3.org/2000/svg">
<path d="M1.50673 9.98993C0.549155 10.5403 0.219 11.7627 0.769325 12.7202L9.73734 28.325C10.2877 29.2826 11.5101 29.6127 12.4677 29.0624C13.4252 28.5121 13.7554 27.2897 13.2051 26.3321L5.23349 12.4612L19.1044 4.48962C20.062 3.93931 20.3921 2.71691 19.8418 1.75932C19.2915 0.801733 18.0691 0.471578 17.1115 1.02191L1.50673 9.98993ZM85.4179 129.023C91.6833 99.2478 95.0612 75.5981 84.5374 56.2641C73.9913 36.889 49.8531 22.4408 3.02461 9.79317L1.98175 13.6544C48.7019 26.2728 71.3336 40.3723 81.0245 58.1763C90.7379 76.0214 87.8203 98.1826 81.504 128.2L85.4179 129.023Z" fill="#F58220"/>
</svg>
