<svg width="178" height="79" viewBox="0 0 178 79" fill="none" xmlns="http://www.w3.org/2000/svg">
<path d="M177.835 50.9687C178.378 49.4036 177.549 47.6945 175.984 47.1514L150.479 38.3006C148.914 37.7575 147.205 38.586 146.662 40.1511C146.119 41.7162 146.947 43.4253 148.512 43.9684L171.184 51.8358L163.316 74.5071C162.773 76.0722 163.602 77.7813 165.167 78.3244C166.732 78.8675 168.441 78.039 168.984 76.4739L177.835 50.9687ZM0.58497 3.37464C21.9152 44.376 42.383 68.5559 69.809 76.261C97.1146 83.9323 130.336 74.9708 176.309 52.6846L173.692 47.2861C127.764 69.5503 96.3878 77.4965 71.4317 70.4852C46.596 63.5078 27.1374 41.4149 5.90722 0.605831L0.58497 3.37464Z" fill="#FFF100"/>
</svg>
